<svg xmlns="http://www.w3.org/2000/svg" viewBox="0 0 556.96 532.4"><defs><style>.cls-1{fill:#264994;}</style></defs><title>favicon资源 1</title><g id="图层_2" data-name="图层 2"><g id="图层_1-2" data-name="图层 1"><path class="cls-1" d="M395.42,359.75A142.39,142.39,0,0,0,194.79,163.32,143.77,143.77,0,0,0,164,193.86a142.34,142.34,0,0,0,30.45,199.55H362.55A143.14,143.14,0,0,0,395.42,359.75Zm-45.3,3.5a133,133,0,0,0-26.34-178.4,99.07,99.07,0,0,1,26.34,178.4Z"/><path class="cls-1" d="M395.42,25.7A278.93,278.93,0,0,0,164,24.59C67.26,68.26,0,165.51,0,278.51A278.24,278.24,0,0,0,164,532.4V481.62h0v-4.44A85.88,85.88,0,0,1,184,424a172.73,172.73,0,0,1-20-15.17,175.2,175.2,0,0,1-15.43-15.4,173.47,173.47,0,1,1,259.9,0,167.16,167.16,0,0,1-13,13.21A171.93,171.93,0,0,1,374.51,423a86,86,0,0,1,20.91,56.41v51.89A278.17,278.17,0,0,0,557,278.51C557,166.47,490.81,69.89,395.42,25.7Z"/><rect class="cls-1" x="234.07" y="450.78" width="88.82" height="61.68" rx="6.48"/></g></g></svg>